ffmpeg started on 2025-06-20 at 17:37:16
Report written to "D:\Convert\FFMetrics\reports\ssim_report-6.txt"
Log level: 32
Command line:
ffmpeg -hide_banner -nostdin -i "G:\\\xc0\xed\xe8\xec\xe5\\[\xd2\xee\xef]\\\xc2\xee\xeb\xf7\xe8\xf6\xe0 \xe8 \xef\xf0\xff\xed\xee\xf1\xf2\xe8\\\xd2\xee\xf0\xe3\xee\xe2\xe5\xf6 \xe2\xf1\xf2\xf0\xe5\xf7\xe0\xe5\xf2 \xec\xf3\xe4\xf0\xf3\xfe \xe2\xee\xeb\xf7\xe8\xf6\xf3\\DC_Ookami_to_Koushinryou_Merchant_Meets_the_Wise_Wolf_25_END_Telegram_HEVC.mkv" -i "G:\\\xc0\xed\xe8\xec\xe5\\[\xd2\xee\xef]\\\xc2\xee\xeb\xf7\xe8\xf6\xe0 \xe8 \xef\xf0\xff\xed\xee\xf1\xf2\xe8\\\xd2\xee\xf0\xe3\xee\xe2\xe5\xf6 \xe2\xf1\xf2\xf0\xe5\xf7\xe0\xe5\xf2 \xec\xf3\xe4\xf0\xf3\xfe \xe2\xee\xeb\xf7\xe8\xf6\xf3\\DC_Ookami_to_Koushinryou_Merchant_Meets_the_Wise_Wolf_25_END_Telegram.mp4" -lavfi "[0:v]settb=AVTB,setpts=PTS-STARTPTS,format=pix_fmts=yuv420p10,fps=24000/1001,scale=1920:1080:flags=bicubic[main];[1:v]settb=AVTB,setpts=PTS-STARTPTS,format=pix_fmts=yuv420p,fps=24000/1001,scale=1920:1080:flags=bicubic[ref];[main][ref]ssim=eof_action=endall:stats_file='D\\:/Convert/FFMetrics/logs/ssim_logfile-6.txt'" -f null -
Input #0, matroska,webm, from 'G:\Аниме\[Топ]\Волчица и пряности\Торговец встречает мудрую волчицу\DC_Ookami_to_Koushinryou_Merchant_Meets_the_Wise_Wolf_25_END_Telegram_HEVC.mkv':
  Metadata:
    COMPATIBLE_BRANDS: isomiso2avc1mp41
    MAJOR_BRAND     : isom
    MINOR_VERSION   : 512
    ENCODER         : Lavf61.7.100
  Duration: 00:23:57.74, start: -0.021000, bitrate: 1041 kb/s
  Stream #0:0: Video: hevc (Main 10), yuv420p10le(tv, bt709, progressive), 1920x1080 [SAR 1:1 DAR 16:9], 23.98 fps, 23.98 tbr, 1k tbn (default)
      Metadata:
        HANDLER_NAME    : VideoHandler
        VENDOR_ID       : [0][0][0][0]
        ENCODER         : Lavc61.19.100 libx265
        BPS             : 844791
        DURATION        : 00:23:56.643708333
        NUMBER_OF_FRAMES: 34445
        NUMBER_OF_BYTES : 151708026
        _STATISTICS_WRITING_APP: mkvpropedit v66.0.0 ('Josie') 64-bit
        _STATISTICS_WRITING_DATE_UTC: 2025-06-20 13:25:04
        _STATISTICS_TAGS: BPS DURATION NUMBER_OF_FRAMES NUMBER_OF_BYTES
  Stream #0:1: Audio: aac (LC), 48000 Hz, stereo, fltp (default)
      Metadata:
        HANDLER_NAME    : SoundHandler
        VENDOR_ID       : [0][0][0][0]
        ENCODER         : Lavc61.19.100 aac
        BPS             : 193284
        DURATION        : 00:23:57.738000000
        NUMBER_OF_FRAMES: 67395
        NUMBER_OF_BYTES : 34736580
        _STATISTICS_WRITING_APP: mkvpropedit v66.0.0 ('Josie') 64-bit
        _STATISTICS_WRITING_DATE_UTC: 2025-06-20 13:25:04
        _STATISTICS_TAGS: BPS DURATION NUMBER_OF_FRAMES NUMBER_OF_BYTES
Input #1, mov,mp4,m4a,3gp,3g2,mj2, from 'G:\Аниме\[Топ]\Волчица и пряности\Торговец встречает мудрую волчицу\DC_Ookami_to_Koushinryou_Merchant_Meets_the_Wise_Wolf_25_END_Telegram.mp4':
  Metadata:
    major_brand     : isom
    minor_version   : 512
    compatible_brands: isomiso2avc1mp41
    encoder         : Lavf60.16.100
  Duration: 00:23:57.71, start: 0.000000, bitrate: 3680 kb/s
  Stream #1:0[0x1](und): Video: h264 (High) (avc1 / 0x31637661), yuv420p(tv, bt709, progressive), 1920x1080 [SAR 1:1 DAR 16:9], 3535 kb/s, 23.98 fps, 23.98 tbr, 24k tbn (default)
      Metadata:
        handler_name    : VideoHandler
        vendor_id       : [0][0][0][0]
        encoder         : Lavc60.31.102 h264_qsv
  Stream #1:1[0x2](und): Audio: aac (HE-AACv2) (mp4a / 0x6134706D), 48000 Hz, stereo, fltp, 144 kb/s (default)
      Metadata:
        handler_name    : SoundHandler
        vendor_id       : [0][0][0][0]
Stream mapping:
  Stream #0:0 (hevc) -> settb:default
  Stream #1:0 (h264) -> settb:default
  ssim:default -> Stream #0:0 (wrapped_avframe)
  Stream #0:1 -> #0:1 (aac (native) -> pcm_s16le (native))
Output #0, null, to 'pipe:':
  Metadata:
    COMPATIBLE_BRANDS: isomiso2avc1mp41
    MAJOR_BRAND     : isom
    MINOR_VERSION   : 512
    encoder         : Lavf61.7.100
  Stream #0:0: Video: wrapped_avframe, yuv420p10le(tv, bt709, progressive), 1920x1080 [SAR 1:1 DAR 16:9], q=2-31, 200 kb/s, 23.98 fps, 23.98 tbn
      Metadata:
        encoder         : Lavc61.19.100 wrapped_avframe
  Stream #0:1: Audio: pcm_s16le, 48000 Hz, stereo, s16, 1536 kb/s (default)
      Metadata:
        HANDLER_NAME    : SoundHandler
        VENDOR_ID       : [0][0][0][0]
        _STATISTICS_TAGS: BPS DURATION NUMBER_OF_FRAMES NUMBER_OF_BYTES
        BPS             : 193284
        DURATION        : 00:23:57.738000000
        NUMBER_OF_FRAMES: 67395
        NUMBER_OF_BYTES : 34736580
        _STATISTICS_WRITING_APP: mkvpropedit v66.0.0 ('Josie') 64-bit
        _STATISTICS_WRITING_DATE_UTC: 2025-06-20 13:25:04
        encoder         : Lavc61.19.100 pcm_s16le
frame=  187 fps=0.0 q=-0.0 size=N/A time=00:00:07.79 bitrate=N/A speed=  15x    frame=  444 fps=431 q=-0.0 size=N/A time=00:00:18.51 bitrate=N/A speed=  18x    frame=  715 fps=460 q=-0.0 size=N/A time=00:00:29.82 bitrate=N/A speed=19.2x    frame=  944 fps=457 q=-0.0 size=N/A time=00:00:39.37 bitrate=N/A speed=19.1x    frame= 1146 fps=446 q=-0.0 size=N/A time=00:00:47.79 bitrate=N/A speed=18.6x    frame= 1338 fps=432 q=-0.0 size=N/A time=00:00:55.80 bitrate=N/A speed=  18x    frame= 1554 fps=430 q=-0.0 size=N/A time=00:01:04.81 bitrate=N/A speed=17.9x    frame= 1765 fps=428 q=-0.0 size=N/A time=00:01:13.61 bitrate=N/A speed=17.8x    frame= 1991 fps=429 q=-0.0 size=N/A time=00:01:23.04 bitrate=N/A speed=17.9x    frame= 2171 fps=421 q=-0.0 size=N/A time=00:01:30.54 bitrate=N/A speed=17.6x    frame= 2379 fps=420 q=-0.0 size=N/A time=00:01:39.22 bitrate=N/A speed=17.5x    frame= 2608 fps=421 q=-0.0 size=N/A time=00:01:48.77 bitrate=N/A speed=17.6x    frame= 2811 fps=419 q=-0.0 size=N/A time=00:01:57.24 bitrate=N/A speed=17.5x    frame= 2972 fps=412 q=-0.0 size=N/A time=00:02:03.95 bitrate=N/A speed=17.2x    frame= 3210 fps=415 q=-0.0 size=N/A time=00:02:13.88 bitrate=N/A speed=17.3x    frame= 3418 fps=414 q=-0.0 size=N/A time=00:02:22.55 bitrate=N/A speed=17.3x    frame= 3672 fps=419 q=-0.0 size=N/A time=00:02:33.15 bitrate=N/A speed=17.5x    frame= 3905 fps=421 q=-0.0 size=N/A time=00:02:42.87 bitrate=N/A speed=17.5x    frame= 4144 fps=423 q=-0.0 size=N/A time=00:02:52.83 bitrate=N/A speed=17.7x    frame= 4393 fps=426 q=-0.0 size=N/A time=00:03:03.22 bitrate=N/A speed=17.8x    frame= 4647 fps=429 q=-0.0 size=N/A time=00:03:13.81 bitrate=N/A speed=17.9x    frame= 4931 fps=434 q=-0.0 size=N/A time=00:03:25.66 bitrate=N/A speed=18.1x    frame= 5144 fps=434 q=-0.0 size=N/A time=00:03:34.54 bitrate=N/A speed=18.1x    frame= 5358 fps=433 q=-0.0 size=N/A time=00:03:43.47 bitrate=N/A speed=18.1x    frame= 5639 fps=438 q=-0.0 size=N/A time=00:03:55.19 bitrate=N/A speed=18.3x    frame= 5931 fps=442 q=-0.0 size=N/A time=00:04:07.37 bitrate=N/A speed=18.4x    frame= 6200 fps=446 q=-0.0 size=N/A time=00:04:18.59 bitrate=N/A speed=18.6x    frame= 6453 fps=447 q=-0.0 size=N/A time=00:04:29.14 bitrate=N/A speed=18.6x    frame= 6686 fps=447 q=-0.0 size=N/A time=00:04:38.86 bitrate=N/A speed=18.7x    frame= 6956 fps=450 q=-0.0 size=N/A time=00:04:50.12 bitrate=N/A speed=18.8x    frame= 7226 fps=452 q=-0.0 size=N/A time=00:05:01.38 bitrate=N/A speed=18.9x    frame= 7476 fps=453 q=-0.0 size=N/A time=00:05:11.81 bitrate=N/A speed=18.9x    frame= 7725 fps=454 q=-0.0 size=N/A time=00:05:22.19 bitrate=N/A speed=18.9x    frame= 7982 fps=455 q=-0.0 size=N/A time=00:05:32.91 bitrate=N/A speed=  19x    frame= 8236 fps=456 q=-0.0 size=N/A time=00:05:43.50 bitrate=N/A speed=  19x    frame= 8471 fps=456 q=-0.0 size=N/A time=00:05:53.31 bitrate=N/A speed=  19x    frame= 8752 fps=458 q=-0.0 size=N/A time=00:06:05.03 bitrate=N/A speed=19.1x    frame= 9002 fps=459 q=-0.0 size=N/A time=00:06:15.45 bitrate=N/A speed=19.1x    frame= 9156 fps=455 q=-0.0 size=N/A time=00:06:21.88 bitrate=N/A speed=  19x    frame= 9319 fps=451 q=-0.0 size=N/A time=00:06:28.67 bitrate=N/A speed=18.8x    frame= 9504 fps=449 q=-0.0 size=N/A time=00:06:36.39 bitrate=N/A speed=18.7x    frame= 9704 fps=448 q=-0.0 size=N/A time=00:06:44.73 bitrate=N/A speed=18.7x    frame= 9945 fps=448 q=-0.0 size=N/A time=00:06:54.78 bitrate=N/A speed=18.7x    frame=10107 fps=445 q=-0.0 size=N/A time=00:07:01.54 bitrate=N/A speed=18.6x    frame=10357 fps=446 q=-0.0 size=N/A time=00:07:11.97 bitrate=N/A speed=18.6x    frame=10592 fps=446 q=-0.0 size=N/A time=00:07:21.77 bitrate=N/A speed=18.6x    frame=10830 fps=447 q=-0.0 size=N/A time=00:07:31.70 bitrate=N/A speed=18.6x    frame=11099 fps=448 q=-0.0 size=N/A time=00:07:42.92 bitrate=N/A speed=18.7x    frame=11354 fps=449 q=-0.0 size=N/A time=00:07:53.55 bitrate=N/A speed=18.7x    frame=11615 fps=450 q=-0.0 size=N/A time=00:08:04.44 bitrate=N/A speed=18.8x    frame=11890 fps=452 q=-0.0 size=N/A time=00:08:15.91 bitrate=N/A speed=18.8x    frame=12148 fps=453 q=-0.0 size=N/A time=00:08:26.67 bitrate=N/A speed=18.9x    frame=12415 fps=454 q=-0.0 size=N/A time=00:08:37.80 bitrate=N/A speed=18.9x    frame=12660 fps=454 q=-0.0 size=N/A time=00:08:48.02 bitrate=N/A speed=  19x    frame=12923 fps=455 q=-0.0 size=N/A time=00:08:58.99 bitrate=N/A speed=  19x    frame=13187 fps=456 q=-0.0 size=N/A time=00:09:10.00 bitrate=N/A speed=  19x    frame=13466 fps=458 q=-0.0 size=N/A time=00:09:21.64 bitrate=N/A speed=19.1x    frame=13745 fps=459 q=-0.0 size=N/A time=00:09:33.28 bitrate=N/A speed=19.2x    frame=14017 fps=460 q=-0.0 size=N/A time=00:09:44.62 bitrate=N/A speed=19.2x    frame=14287 fps=462 q=-0.0 size=N/A time=00:09:55.88 bitrate=N/A speed=19.3x    frame=14560 fps=463 q=-0.0 size=N/A time=00:10:07.27 bitrate=N/A speed=19.3x    frame=14843 fps=464 q=-0.0 size=N/A time=00:10:19.07 bitrate=N/A speed=19.4x    frame=15111 fps=465 q=-0.0 size=N/A time=00:10:30.25 bitrate=N/A speed=19.4x    frame=15366 fps=465 q=-0.0 size=N/A time=00:10:40.89 bitrate=N/A speed=19.4x    frame=15608 fps=466 q=-0.0 size=N/A time=00:10:50.98 bitrate=N/A speed=19.4x    frame=15889 fps=467 q=-0.0 size=N/A time=00:11:02.70 bitrate=N/A speed=19.5x    frame=16169 fps=468 q=-0.0 size=N/A time=00:11:14.38 bitrate=N/A speed=19.5x    frame=16440 fps=469 q=-0.0 size=N/A time=00:11:25.68 bitrate=N/A speed=19.5x    frame=16719 fps=470 q=-0.0 size=N/A time=00:11:37.32 bitrate=N/A speed=19.6x    frame=16996 fps=471 q=-0.0 size=N/A time=00:11:48.87 bitrate=N/A speed=19.6x    frame=17241 fps=471 q=-0.0 size=N/A time=00:11:59.09 bitrate=N/A speed=19.6x    frame=17498 fps=471 q=-0.0 size=N/A time=00:12:09.81 bitrate=N/A speed=19.6x    frame=17745 fps=471 q=-0.0 size=N/A time=00:12:20.11 bitrate=N/A speed=19.7x    frame=18009 fps=472 q=-0.0 size=N/A time=00:12:31.12 bitrate=N/A speed=19.7x    frame=18228 fps=471 q=-0.0 size=N/A time=00:12:40.25 bitrate=N/A speed=19.7x    frame=18477 fps=471 q=-0.0 size=N/A time=00:12:50.64 bitrate=N/A speed=19.7x    frame=18747 fps=472 q=-0.0 size=N/A time=00:13:01.90 bitrate=N/A speed=19.7x    frame=19000 fps=472 q=-0.0 size=N/A time=00:13:12.45 bitrate=N/A speed=19.7x    frame=19269 fps=473 q=-0.0 size=N/A time=00:13:23.67 bitrate=N/A speed=19.7x    frame=19540 fps=473 q=-0.0 size=N/A time=00:13:34.98 bitrate=N/A speed=19.7x    frame=19790 fps=474 q=-0.0 size=N/A time=00:13:45.40 bitrate=N/A speed=19.8x    frame=20050 fps=474 q=-0.0 size=N/A time=00:13:56.25 bitrate=N/A speed=19.8x    frame=20320 fps=475 q=-0.0 size=N/A time=00:14:07.51 bitrate=N/A speed=19.8x    frame=20571 fps=475 q=-0.0 size=N/A time=00:14:17.98 bitrate=N/A speed=19.8x    frame=20840 fps=475 q=-0.0 size=N/A time=00:14:29.20 bitrate=N/A speed=19.8x    frame=21118 fps=476 q=-0.0 size=N/A time=00:14:40.79 bitrate=N/A speed=19.9x    frame=21390 fps=477 q=-0.0 size=N/A time=00:14:52.14 bitrate=N/A speed=19.9x    frame=21642 fps=477 q=-0.0 size=N/A time=00:15:02.65 bitrate=N/A speed=19.9x    frame=21909 fps=477 q=-0.0 size=N/A time=00:15:13.78 bitrate=N/A speed=19.9x    frame=22182 fps=478 q=-0.0 size=N/A time=00:15:25.17 bitrate=N/A speed=19.9x    frame=22443 fps=478 q=-0.0 size=N/A time=00:15:36.06 bitrate=N/A speed=19.9x    frame=22679 fps=478 q=-0.0 size=N/A time=00:15:45.90 bitrate=N/A speed=19.9x    frame=22945 fps=478 q=-0.0 size=N/A time=00:15:56.99 bitrate=N/A speed=19.9x    frame=23198 fps=478 q=-0.0 size=N/A time=00:16:07.54 bitrate=N/A speed=19.9x    frame=23454 fps=479 q=-0.0 size=N/A time=00:16:18.22 bitrate=N/A speed=  20x    frame=23718 fps=479 q=-0.0 size=N/A time=00:16:29.23 bitrate=N/A speed=  20x    frame=23988 fps=479 q=-0.0 size=N/A time=00:16:40.49 bitrate=N/A speed=  20x    frame=24281 fps=480 q=-0.0 size=N/A time=00:16:52.72 bitrate=N/A speed=  20x    frame=24539 fps=480 q=-0.0 size=N/A time=00:17:03.48 bitrate=N/A speed=  20x    frame=24795 fps=481 q=-0.0 size=N/A time=00:17:14.15 bitrate=N/A speed=  20x    frame=25048 fps=481 q=-0.0 size=N/A time=00:17:24.71 bitrate=N/A speed=  20x    frame=25334 fps=481 q=-0.0 size=N/A time=00:17:36.63 bitrate=N/A speed=20.1x    frame=25616 fps=482 q=-0.0 size=N/A time=00:17:48.40 bitrate=N/A speed=20.1x    frame=25883 fps=482 q=-0.0 size=N/A time=00:17:59.53 bitrate=N/A speed=20.1x    frame=26139 fps=483 q=-0.0 size=N/A time=00:18:10.21 bitrate=N/A speed=20.1x    frame=26397 fps=483 q=-0.0 size=N/A time=00:18:20.97 bitrate=N/A speed=20.1x    frame=26631 fps=482 q=-0.0 size=N/A time=00:18:30.73 bitrate=N/A speed=20.1x    frame=26893 fps=483 q=-0.0 size=N/A time=00:18:41.66 bitrate=N/A speed=20.1x    frame=27162 fps=483 q=-0.0 size=N/A time=00:18:52.88 bitrate=N/A speed=20.1x    frame=27419 fps=483 q=-0.0 size=N/A time=00:19:03.60 bitrate=N/A speed=20.1x    frame=27631 fps=483 q=-0.0 size=N/A time=00:19:12.44 bitrate=N/A speed=20.1x    frame=27866 fps=482 q=-0.0 size=N/A time=00:19:22.24 bitrate=N/A speed=20.1x    frame=28114 fps=482 q=-0.0 size=N/A time=00:19:32.58 bitrate=N/A speed=20.1x    frame=28357 fps=482 q=-0.0 size=N/A time=00:19:42.72 bitrate=N/A speed=20.1x    frame=28583 fps=482 q=-0.0 size=N/A time=00:19:52.14 bitrate=N/A speed=20.1x    frame=28830 fps=482 q=-0.0 size=N/A time=00:20:02.45 bitrate=N/A speed=20.1x    frame=29056 fps=481 q=-0.0 size=N/A time=00:20:11.87 bitrate=N/A speed=20.1x    frame=29254 fps=480 q=-0.0 size=N/A time=00:20:20.13 bitrate=N/A speed=  20x    frame=29480 fps=480 q=-0.0 size=N/A time=00:20:29.56 bitrate=N/A speed=  20x    frame=29715 fps=480 q=-0.0 size=N/A time=00:20:39.36 bitrate=N/A speed=  20x    frame=29943 fps=480 q=-0.0 size=N/A time=00:20:48.87 bitrate=N/A speed=  20x    frame=30184 fps=479 q=-0.0 size=N/A time=00:20:58.92 bitrate=N/A speed=  20x    frame=30401 fps=479 q=-0.0 size=N/A time=00:21:07.97 bitrate=N/A speed=  20x    frame=30646 fps=479 q=-0.0 size=N/A time=00:21:18.19 bitrate=N/A speed=  20x    frame=30883 fps=479 q=-0.0 size=N/A time=00:21:28.07 bitrate=N/A speed=  20x    frame=31123 fps=479 q=-0.0 size=N/A time=00:21:38.08 bitrate=N/A speed=  20x    frame=31340 fps=478 q=-0.0 size=N/A time=00:21:47.13 bitrate=N/A speed=19.9x    frame=31594 fps=478 q=-0.0 size=N/A time=00:21:57.73 bitrate=N/A speed=  20x    frame=31846 fps=478 q=-0.0 size=N/A time=00:22:08.24 bitrate=N/A speed=  20x    frame=32079 fps=478 q=-0.0 size=N/A time=00:22:17.96 bitrate=N/A speed=19.9x    frame=32292 fps=478 q=-0.0 size=N/A time=00:22:26.84 bitrate=N/A speed=19.9x    frame=32495 fps=477 q=-0.0 size=N/A time=00:22:35.31 bitrate=N/A speed=19.9x    frame=32725 fps=477 q=-0.0 size=N/A time=00:22:44.90 bitrate=N/A speed=19.9x    frame=32971 fps=477 q=-0.0 size=N/A time=00:22:55.16 bitrate=N/A speed=19.9x    frame=33200 fps=477 q=-0.0 size=N/A time=00:23:04.71 bitrate=N/A speed=19.9x    frame=33354 fps=475 q=-0.0 size=N/A time=00:23:11.13 bitrate=N/A speed=19.8x    frame=33597 fps=475 q=-0.0 size=N/A time=00:23:21.27 bitrate=N/A speed=19.8x    frame=33849 fps=475 q=-0.0 size=N/A time=00:23:31.78 bitrate=N/A speed=19.8x    frame=34075 fps=475 q=-0.0 size=N/A time=00:23:41.21 bitrate=N/A speed=19.8x    frame=34331 fps=475 q=-0.0 size=N/A time=00:23:51.88 bitrate=N/A speed=19.8x    [Parsed_ssim_10 @ 000001a465381c80] SSIM Y:0.993360 (21.778499) U:0.993564 (21.913691) V:0.994383 (22.504607) All:0.993565 (21.914225)
[out#0/null @ 000001a463d05000] video:14801KiB audio:269580KiB subtitle:0KiB other streams:0KiB global headers:0KiB muxing overhead: unknown
frame=34445 fps=475 q=-0.0 Lsize=N/A time=00:23:56.64 bitrate=N/A speed=19.8x    
